<svg xmlns="http://www.w3.org/2000/svg" width="16" height="16" viewBox="0 0 16 16" fill="none"><path fill="#B4B4B4" d="M6.667 9.784v-.04c0-1.673 1.344-3.08 3.168-3.49-.242-1.534-1.862-2.787-3.902-2.787C3.72 3.467 2 4.942 2 6.654c0 .646.24 1.266.693 1.798.022.026.056.063.102.11.392.403.628.932.668 1.493a2.408 2.408 0 0 1 1.575-.295l.27.04c.451.058.909.053 1.359-.016Zm.304 1.301a6.138 6.138 0 0 1-1.835.037 12.858 12.858 0 0 1-.303-.045 1.074 1.074 0 0 0-.72.142l-1.269.765a.537.537 0 0 1-.788-.285.527.527 0 0 1-.025-.204l.1-1.188a1.043 1.043 0 0 0-.292-.815 3.69 3.69 0 0 1-.161-.175C1.042 8.57.667 7.65.667 6.653c0-2.496 2.358-4.52 5.266-4.52 2.707 0 4.936 1.752 5.234 4.006 2.248.102 4.033 1.677 4.033 3.604 0 .796-.304 1.53-.82 2.127-.033.04-.077.087-.13.14a.827.827 0 0 0-.237.65l.081.95a.425.425 0 0 1-.393.453.44.44 0 0 1-.265-.063l-1.029-.611a.882.882 0 0 0-.582-.113 5.14 5.14 0 0 1-.891.077c-1.797 0-3.333-.94-3.963-2.268Zm4.652.873a2.215 2.215 0 0 1 1.117.117c.093-.379.287-.725.56-1.002.034-.033.059-.06.071-.075.326-.376.496-.808.496-1.255 0-1.203-1.269-2.276-2.934-2.276C9.27 7.467 8 8.54 8 9.743c0 1.203 1.269 2.276 2.933 2.276.161 0 .32-.01.476-.03a6.68 6.68 0 0 0 .214-.031Z"/></svg>