<svg xmlns="http://www.w3.org/2000/svg" width="24" height="24" viewBox="0 0 24 24" fill="none"><circle cx="12" cy="12" r="12" fill="#fff"/><path fill="url(#a)" d="M15.233 4H8.767A4.772 4.772 0 0 0 4 8.766v6.467A4.772 4.772 0 0 0 8.766 20h6.467A4.772 4.772 0 0 0 20 15.233V8.767A4.772 4.772 0 0 0 15.233 4Zm3.157 11.233a3.157 3.157 0 0 1-3.157 3.157H8.767a3.157 3.157 0 0 1-3.156-3.157V8.767A3.157 3.157 0 0 1 8.766 5.61h6.467a3.157 3.157 0 0 1 3.157 3.156v6.467Z"/><path fill="url(#b)" d="M12 7.862A4.143 4.143 0 0 0 7.862 12 4.143 4.143 0 0 0 12 16.14 4.143 4.143 0 0 0 16.138 12 4.143 4.143 0 0 0 12 7.862Zm0 6.667a2.529 2.529 0 1 1 0-5.057 2.529 2.529 0 0 1 0 5.057Z"/><path fill="url(#c)" d="M16.146 8.885a.992.992 0 1 0 0-1.984.992.992 0 0 0 0 1.984Z"/><defs><linearGradient id="a" x1="12" x2="12" y1="19.953" y2="4.124" gradientUnits="userSpaceOnUse"><stop stop-color="#E09B3D"/><stop offset=".3" stop-color="#C74C4D"/><stop offset=".6" stop-color="#C21975"/><stop offset="1" stop-color="#7024C4"/></linearGradient><linearGradient id="b" x1="12" x2="12" y1="19.954" y2="4.125" gradientUnits="userSpaceOnUse"><stop stop-color="#E09B3D"/><stop offset=".3" stop-color="#C74C4D"/><stop offset=".6" stop-color="#C21975"/><stop offset="1" stop-color="#7024C4"/></linearGradient><linearGradient id="c" x1="16.146" x2="16.146" y1="19.953" y2="4.124" gradientUnits="userSpaceOnUse"><stop stop-color="#E09B3D"/><stop offset=".3" stop-color="#C74C4D"/><stop offset=".6" stop-color="#C21975"/><stop offset="1" stop-color="#7024C4"/></linearGradient></defs></svg>