<svg xmlns="http://www.w3.org/2000/svg" width="24" height="24" fill="none"><path fill="#25D366" d="M12 24c6.627 0 12-5.373 12-12S18.627 0 12 0 0 5.373 0 12s5.373 12 12 12Z"/><path fill="#FDFDFD" fill-rule="evenodd" d="M12.396 18.677h-.004c-1.194 0-2.367-.3-3.41-.869L5.2 18.8l1.012-3.697a7.123 7.123 0 0 1-.952-3.567C5.26 7.6 8.462 4.4 12.395 4.4c1.91.001 3.7.744 5.048 2.093a7.092 7.092 0 0 1 2.088 5.048c-.002 3.934-3.201 7.134-7.135 7.136Zm-3.238-2.16.216.128c.911.54 1.955.826 3.02.827h.002a5.94 5.94 0 0 0 5.93-5.931 5.895 5.895 0 0 0-1.735-4.196 5.89 5.89 0 0 0-4.193-1.74 5.94 5.94 0 0 0-5.933 5.93c0 1.122.313 2.213.906 3.157l.141.225-.599 2.188 2.245-.589Zm6.588-3.44c.125.06.209.101.245.161.044.074.044.431-.104.848-.15.416-.861.796-1.204.848a2.444 2.444 0 0 1-1.123-.071 10.254 10.254 0 0 1-1.016-.376c-1.672-.721-2.801-2.341-3.015-2.648l-.031-.044-.002-.002c-.094-.126-.726-.97-.726-1.842 0-.821.403-1.252.589-1.45l.035-.038a.655.655 0 0 1 .475-.223c.12 0 .238.001.342.007h.04c.104 0 .233-.001.361.306.05.118.121.293.197.478.154.373.323.786.353.845.044.09.074.194.015.313l-.025.05c-.045.092-.078.159-.153.247l-.092.11c-.061.075-.123.15-.176.203-.09.089-.182.185-.078.364.104.178.462.762.992 1.235.57.508 1.065.723 1.316.832.049.02.088.038.117.053.179.089.283.074.387-.045.104-.119.446-.52.564-.7.12-.178.238-.148.401-.088.164.06 1.04.49 1.219.58l.097.047Z" clip-rule="evenodd"/></svg>