<svg xmlns="http://www.w3.org/2000/svg" width="24" height="24" viewBox="0 0 24 24" fill="none"><path fill="url(#a)" d="M12 24c6.627 0 12-5.373 12-12S18.627 0 12 0 0 5.373 0 12s5.373 12 12 12Z"/><path fill="#fff" d="M4.47 12.587c1.402-.772 2.968-1.417 4.43-2.066 2.518-1.061 5.045-2.105 7.598-3.076.496-.165 1.389-.327 1.476.409-.048 1.042-.245 2.077-.38 3.113-.343 2.277-.74 4.547-1.127 6.817-.133.757-1.08 1.148-1.686.664-1.457-.984-2.925-1.958-4.363-2.965-.47-.478-.034-1.166.387-1.508 1.2-1.182 2.472-2.186 3.609-3.43.307-.74-.6-.116-.899.075-1.642 1.132-3.244 2.333-4.976 3.327-.884.487-1.915.071-2.8-.2-.792-.329-1.954-.66-1.27-1.16Z"/><defs><linearGradient id="a" x1="9.001" x2="3.001" y1="1.001" y2="15" gradientUnits="userSpaceOnUse"><stop stop-color="#37AEE2"/><stop offset="1" stop-color="#1E96C8"/></linearGradient></defs></svg>